<?xml version="1.0" standalone="no"?>
<!DOCTYPE svg PUBLIC "-//W3C//DTD SVG 20010904//EN"
 "http://www.w3.org/TR/2001/REC-SVG-20010904/DTD/svg10.dtd">
<svg version="1.0" xmlns="http://www.w3.org/2000/svg"
 width="1280.000000pt" height="1280.000000pt" viewBox="0 0 1280.000000 1280.000000"
 preserveAspectRatio="xMidYMid meet">

<g transform="translate(0.000000,1280.000000) scale(0.100000,-0.100000)"
fill="#000000" stroke="none">
<path d="M3936 9589 c-349 -37 -642 -308 -718 -664 -12 -59 -11 -4836 2 -4969
4 -44 15 -106 24 -137 17 -56 17 -56 69 -68 84 -19 151 -55 203 -111 27 -29
48 -57 46 -62 -1 -5 2 -7 6 -4 13 8 44 -29 35 -40 -5 -5 -4 -6 1 -1 5 4 23 -5
40 -20 17 -15 -12 17 -64 72 -52 55 -72 78 -44 52 27 -26 54 -44 59 -40 4 5 5
3 2 -3 -3 -6 12 -28 33 -49 50 -49 87 -118 116 -215 l22 -75 54 -17 c30 -9 94
-21 144 -27 61 -7 826 -13 2419 -18 2465 -7 2473 -6 2625 38 293 87 520 340
582 649 10 52 13 539 13 2530 l0 2465 -23 85 c-81 304 -295 524 -598 612 l-79
23 -2445 1 c-1345 1 -2481 -2 -2524 -7z m430 -571 c11 -11 -12 -104 -41 -166
-29 -62 -122 -163 -183 -199 -91 -54 -229 -77 -332 -57 -31 7 -32 8 -27 50 7
67 60 169 122 233 98 103 219 152 367 148 47 -1 90 -5 94 -9z"/>
</g>
</svg>
